<?xml version="1.0" standalone="no"?>
<!DOCTYPE svg PUBLIC "-//W3C//DTD SVG 20010904//EN"
 "http://www.w3.org/TR/2001/REC-SVG-20010904/DTD/svg10.dtd">
<svg version="1.0" xmlns="http://www.w3.org/2000/svg"
 width="1280.000000pt" height="675.000000pt" viewBox="0 0 1280.000000 675.000000"
 preserveAspectRatio="xMidYMid meet">
<g transform="translate(0.000000,675.000000) scale(0.100000,-0.100000)"
fill="#000000" stroke="none">
<path d="M3422 6385 c-19 -8 -47 -26 -64 -40 -16 -14 -37 -25 -47 -25 -17 0
-85 -20 -143 -42 -14 -5 -32 -23 -38 -39 -9 -22 -19 -29 -39 -29 -35 0 -101
-63 -101 -96 0 -13 11 -34 25 -46 14 -12 25 -30 25 -40 0 -36 45 -68 94 -68
40 0 46 -3 65 -35 26 -45 52 -54 167 -62 l93 -6 17 37 c12 25 34 46 71 66 38
22 54 38 59 57 11 52 12 53 61 53 65 0 156 53 163 95 4 25 13 31 74 51 74 24
86 34 86 75 0 46 -30 71 -91 76 -30 3 -68 11 -86 19 -44 20 -344 19 -391 -1z"/>
<path d="M4497 6384 c-15 -8 -32 -26 -37 -40 -9 -21 -15 -24 -65 -24 -30 0
-72 -7 -92 -15 -21 -8 -67 -19 -103 -25 -35 -7 -76 -17 -90 -25 -14 -7 -40
-10 -58 -8 -24 4 -39 0 -55 -15 -12 -11 -36 -27 -54 -36 -38 -19 -53 -43 -53
-84 0 -26 -6 -32 -47 -49 -27 -11 -61 -24 -78 -28 -16 -3 -36 -11 -42 -17 -20
-16 -15 -56 7 -70 13 -8 20 -24 20 -44 0 -49 38 -77 97 -74 26 2 88 4 138 4
l89 1 48 -59 c26 -32 54 -74 63 -92 8 -18 27 -42 40 -52 17 -13 25 -30 25 -50
0 -16 10 -41 21 -56 19 -24 21 -35 15 -87 -4 -32 -14 -75 -22 -94 -13 -31 -13
-39 0 -63 7 -15 28 -57 46 -94 30 -62 39 -72 105 -113 40 -25 82 -45 93 -45
30 0 79 62 87 109 12 69 62 131 137 168 39 19 76 47 92 68 35 46 67 61 146 69
101 11 189 43 196 71 3 14 0 33 -10 46 -14 21 -14 24 1 41 12 13 14 29 10 67
-6 47 -5 49 21 56 15 3 44 18 65 32 45 31 48 62 12 105 l-25 30 20 26 c14 17
20 38 18 63 -1 25 4 45 16 58 9 10 21 31 25 47 4 18 17 31 37 38 46 17 113 58
118 73 3 7 3 20 0 28 -12 31 -40 35 -149 24 -95 -10 -110 -10 -146 6 -23 11
-39 25 -39 35 0 27 -37 68 -68 74 -15 3 -71 2 -126 -2 -96 -7 -99 -7 -114 16
-15 22 -19 23 -106 18 -138 -9 -149 -9 -176 -2 -15 3 -37 0 -53 -10z"/>
<path d="M8926 5941 c-31 -27 -58 -41 -88 -45 -24 -4 -61 -11 -83 -16 -22 -5
-86 -14 -141 -19 -119 -11 -160 -28 -180 -78 -11 -26 -19 -33 -32 -28 -65 26
-112 14 -137 -35 -13 -26 -21 -30 -55 -30 -21 0 -42 -4 -45 -10 -9 -14 -93 -1
-141 21 -48 23 -74 17 -116 -26 -25 -25 -33 -47 -40 -115 -3 -23 -6 -25 -50
-22 -27 2 -75 -5 -115 -17 -37 -11 -133 -30 -213 -42 -80 -12 -158 -28 -174
-36 -26 -13 -32 -13 -61 3 -43 23 -77 13 -96 -28 -20 -46 -42 -46 -81 -2 -18
20 -48 46 -68 58 -45 29 -164 76 -191 76 -11 0 -33 10 -50 22 -22 17 -48 23
-99 26 -60 4 -79 0 -142 -26 -130 -55 -158 -72 -191 -117 -17 -24 -60 -64 -95
-90 -40 -31 -64 -56 -68 -73 -3 -15 -8 -35 -10 -44 -3 -9 -26 -33 -52 -52 -82
-60 -97 -81 -97 -138 0 -42 4 -53 28 -74 23 -20 39 -24 91 -24 l63 0 6 -37 c3
-21 9 -53 13 -72 l7 -34 -36 6 c-34 5 -39 2 -82 -49 -26 -30 -52 -54 -59 -54
-13 0 -42 -20 -133 -91 -33 -25 -80 -58 -105 -73 -54 -32 -66 -62 -42 -109 24
-44 23 -116 -1 -133 -12 -9 -27 -11 -39 -7 -63 23 -127 -5 -160 -71 -28 -57
-17 -89 74 -233 13 -20 11 -25 -22 -57 -19 -19 -62 -86 -93 -148 -32 -62 -71
-129 -88 -148 -16 -19 -44 -64 -61 -100 -30 -64 -31 -68 -34 -237 -4 -198 -6
-191 94 -344 66 -101 118 -155 160 -165 35 -9 117 1 199 25 86 25 142 26 211
4 96 -30 104 -42 120 -177 12 -100 19 -128 47 -180 72 -133 79 -184 42 -306
-11 -39 -15 -74 -11 -121 9 -101 59 -284 104 -379 45 -97 58 -135 68 -204 4
-33 15 -58 31 -74 24 -24 29 -25 123 -19 83 4 107 10 151 34 106 56 164 162
214 388 36 161 38 165 116 251 80 88 89 117 69 214 -8 36 -14 103 -14 150 0
106 10 126 118 240 91 95 109 119 154 205 100 191 102 221 18 242 -27 7 -51
14 -54 17 -9 10 22 38 63 58 78 36 121 68 202 149 89 88 110 128 93 174 -6 15
-8 37 -4 48 6 18 12 19 66 13 102 -10 139 -26 193 -82 28 -28 59 -53 70 -55
16 -4 22 -17 31 -74 25 -155 73 -293 122 -348 10 -12 27 -17 46 -15 27 3 33 9
54 68 44 124 103 228 156 278 67 64 138 104 173 100 29 -3 47 -30 96 -146 13
-30 30 -48 57 -62 30 -16 39 -26 45 -57 3 -21 13 -49 22 -61 16 -26 69 -52
106 -52 14 0 40 -16 65 -40 28 -28 49 -40 69 -40 34 0 82 30 99 62 22 38 17
137 -10 214 -39 114 -41 130 -14 148 13 8 54 22 92 31 114 27 233 108 284 194
25 42 27 54 26 151 0 58 -4 126 -8 153 -7 37 -5 51 6 65 9 9 18 29 22 44 3 15
15 32 26 38 23 12 50 -12 81 -73 22 -43 38 -52 74 -43 41 10 49 40 35 117 -12
62 -11 70 7 106 12 23 33 44 54 54 19 9 56 27 82 39 64 31 125 101 175 202 54
107 63 175 33 242 -16 37 -29 51 -61 64 -30 13 -40 23 -40 39 0 39 63 97 150
137 l80 38 104 -12 c89 -10 110 -9 150 4 26 9 53 16 60 16 21 0 28 -29 11 -53
-28 -40 -57 -156 -51 -200 17 -109 82 -140 151 -72 19 20 35 41 35 47 0 6 18
39 39 72 28 43 41 77 46 116 11 88 42 111 193 140 106 20 155 36 219 69 56 30
67 45 60 84 -4 29 -1 37 30 61 l35 28 67 -31 c80 -37 111 -39 137 -8 29 32 54
74 54 90 0 23 -32 44 -76 52 -26 4 -68 25 -115 59 -100 72 -173 96 -294 96
-62 0 -108 -5 -132 -15 -53 -22 -90 -19 -220 21 -65 21 -154 43 -198 50 -45 8
-107 27 -141 44 -36 18 -77 30 -100 30 -22 0 -58 10 -80 22 l-41 22 -54 -23
c-30 -13 -63 -32 -75 -42 -18 -16 -36 -19 -141 -19 -134 0 -153 4 -153 30 0
10 -9 28 -19 41 -18 23 -28 24 -163 31 -183 8 -245 17 -260 36 -7 8 -13 36
-13 61 0 46 0 46 -54 74 -40 20 -69 27 -111 27 -36 0 -70 7 -95 20 -22 11 -43
20 -47 20 -4 0 -27 -18 -52 -39z m-2455 -841 c10 -6 19 -17 19 -25 0 -8 16
-29 35 -48 46 -45 48 -90 6 -111 -16 -9 -44 -33 -62 -55 -42 -49 -74 -61 -82
-30 -3 12 1 35 9 51 8 16 19 65 24 110 10 82 18 118 26 118 3 0 14 -5 25 -10z
m435 -722 c45 2 54 -1 68 -22 8 -14 27 -36 41 -50 26 -27 34 -66 12 -66 -7 0
-40 7 -72 16 -34 9 -88 14 -125 12 l-65 -3 -3 29 c-2 16 5 44 15 63 16 31 21
34 48 27 17 -4 53 -7 81 -6z m-742 -122 c37 -24 86 -66 108 -92 22 -27 47 -53
55 -57 22 -13 61 0 68 23 10 30 42 24 79 -15 39 -41 68 -44 100 -10 13 14 28
25 33 25 5 0 24 -22 41 -48 41 -64 108 -102 147 -84 23 10 34 10 66 -4 21 -10
40 -22 42 -28 2 -6 -4 -30 -14 -54 -14 -31 -28 -47 -53 -57 -49 -21 -83 -19
-173 10 -94 30 -125 31 -182 5 -60 -28 -120 -25 -196 8 -64 27 -65 27 -85 89
-12 34 -27 67 -35 73 -29 24 -80 22 -188 -10 -106 -31 -157 -35 -164 -15 -6
19 93 159 145 206 48 43 105 78 127 79 6 0 41 -20 79 -44z"/>
<path d="M3325 5741 c-11 -5 -43 -6 -71 -4 -46 5 -54 3 -87 -26 -20 -18 -41
-47 -47 -66 -11 -32 -12 -33 -38 -19 -76 39 -149 -21 -124 -102 8 -26 8 -36
-1 -39 -121 -43 -156 -46 -230 -16 -46 18 -80 13 -117 -17 -29 -25 -39 -28
-69 -21 -20 4 -57 11 -83 14 -38 5 -50 11 -60 33 -11 21 -24 28 -73 38 -33 7
-80 18 -105 24 -25 6 -83 12 -130 13 -72 1 -92 -2 -130 -23 -59 -31 -155 -43
-192 -24 -54 28 -342 87 -415 85 -18 -1 -57 8 -85 19 -82 31 -120 26 -218 -26
-47 -25 -98 -53 -115 -61 -56 -27 -60 -30 -64 -48 -2 -10 3 -35 9 -56 12 -37
12 -40 -13 -65 -15 -15 -27 -34 -27 -43 0 -21 29 -64 59 -88 24 -20 24 -21 8
-56 -21 -44 -22 -86 -1 -115 16 -23 102 -71 167 -91 20 -7 37 -19 37 -26 0
-22 29 -45 58 -45 19 0 41 16 80 57 50 53 57 57 93 54 32 -2 44 3 69 28 l31
30 42 -18 c23 -10 60 -21 82 -25 22 -4 83 -21 135 -38 88 -29 98 -35 157 -97
35 -36 66 -77 69 -91 12 -51 15 -58 39 -86 14 -16 33 -45 42 -65 8 -20 28 -44
43 -53 34 -20 90 -82 90 -100 0 -8 -7 -19 -15 -26 -12 -10 -15 -42 -15 -171 0
-165 6 -198 45 -239 12 -14 26 -36 30 -50 4 -14 35 -53 69 -88 34 -35 75 -89
91 -120 29 -53 33 -57 68 -58 33 0 42 -7 82 -58 25 -32 45 -62 45 -66 0 -4 24
-40 54 -81 31 -41 60 -93 66 -118 6 -25 23 -55 40 -71 39 -36 181 -106 245
-120 69 -16 252 -109 278 -142 12 -15 36 -45 52 -66 17 -22 44 -49 61 -61 51
-35 51 -69 3 -169 -35 -71 -44 -101 -51 -176 -8 -86 -7 -95 17 -149 13 -32 34
-85 46 -119 39 -117 74 -172 155 -245 l76 -68 -6 -175 c-7 -218 -21 -330 -53
-434 -21 -68 -26 -108 -30 -251 -4 -120 -10 -176 -19 -190 -18 -26 -18 -55 2
-83 13 -18 14 -29 5 -54 -6 -17 -11 -52 -11 -79 0 -43 4 -50 42 -83 66 -57
106 -49 145 28 14 28 40 76 59 107 33 55 44 112 24 124 -18 11 -11 34 31 107
24 43 38 80 35 91 -8 30 77 103 142 123 58 17 92 56 92 105 0 20 6 28 24 33
64 16 188 207 205 315 4 28 10 53 12 55 48 38 125 86 162 100 76 29 108 98
126 276 9 82 15 100 45 144 40 60 71 120 80 158 16 66 -66 141 -191 174 -51
14 -96 33 -115 49 -29 24 -38 27 -95 23 l-63 -4 0 48 c0 57 -36 135 -76 167
-15 11 -52 30 -84 42 -58 21 -122 73 -171 139 -25 33 -30 35 -100 41 -41 3
-96 12 -122 20 -43 12 -52 12 -76 -2 -19 -11 -34 -13 -51 -7 -18 7 -36 3 -73
-17 -27 -14 -53 -25 -58 -25 -21 0 -49 42 -49 74 0 47 -32 84 -87 97 -39 10
-44 15 -38 33 3 12 8 45 12 74 7 62 -12 92 -59 92 -41 0 -65 -15 -84 -53 -21
-40 -31 -47 -71 -47 -61 0 -103 78 -103 192 0 75 19 117 64 140 36 18 44 19
92 8 47 -11 56 -11 79 4 14 9 25 21 25 28 0 14 98 2 118 -15 8 -6 27 -39 44
-74 32 -69 65 -90 96 -60 14 15 14 25 -3 115 -20 111 -19 114 45 192 59 70 80
112 80 154 0 34 7 45 61 97 34 32 67 59 74 59 21 0 45 36 45 69 0 29 5 34 57
57 101 45 113 57 112 117 0 114 -4 108 89 129 46 10 96 25 113 33 69 36 76
112 14 142 -20 9 -36 26 -40 40 -3 13 -21 33 -39 44 -22 12 -52 49 -83 100
-55 91 -71 99 -138 73 -56 -21 -65 -13 -65 59 l0 47 41 -6 c36 -6 44 -4 75 27
29 28 34 40 34 78 0 40 4 48 28 62 37 21 63 75 50 103 -10 23 -87 79 -130 95
-16 6 -28 18 -28 29 0 35 -31 60 -154 122 -123 62 -127 63 -186 57 -59 -7 -60
-6 -75 24 -22 42 -66 57 -110 40z m239 -261 c32 -13 51 -29 62 -53 15 -31 15
-35 -8 -69 -15 -23 -36 -40 -59 -47 -20 -6 -42 -18 -49 -26 -16 -20 -3 -54 26
-67 31 -15 30 -23 -7 -56 -29 -26 -32 -35 -41 -121 -7 -76 -6 -102 6 -139 15
-44 15 -46 -17 -121 -28 -64 -37 -76 -56 -76 -24 0 -30 7 -50 58 -8 21 -33 38
-117 77 -86 40 -117 61 -165 110 -32 34 -59 64 -59 69 0 10 53 89 87 129 38
45 90 53 143 23 l39 -22 55 25 c70 32 81 52 55 95 -24 40 -24 46 2 83 17 23
20 39 16 71 -3 22 -1 49 4 59 13 24 74 24 133 -2z"/>
<path d="M5287 5356 c-20 -8 -53 -26 -72 -40 -45 -35 -46 -65 -3 -101 40 -33
82 -30 166 12 65 32 82 64 60 110 -12 25 -19 28 -63 30 -28 2 -67 -4 -88 -11z"/>
<path d="M9830 2260 c-32 -8 -51 -25 -117 -104 -18 -22 -29 -26 -75 -26 -51 0
-56 -3 -101 -48 -26 -26 -47 -53 -47 -58 0 -6 -16 -32 -35 -58 -27 -35 -43
-46 -63 -46 -39 0 -94 -32 -114 -66 -9 -16 -17 -51 -17 -79 -1 -28 -6 -56 -13
-63 -14 -14 -12 -76 4 -105 5 -11 18 -59 28 -106 23 -106 44 -157 71 -171 27
-15 63 -6 91 24 17 17 37 25 76 28 33 3 65 13 82 26 16 12 49 26 75 32 25 6
54 15 64 22 15 9 22 7 40 -11 11 -11 27 -21 34 -21 6 0 32 -16 56 -35 27 -21
55 -35 72 -35 24 0 35 -10 68 -63 48 -75 72 -88 217 -112 39 -7 43 -5 96 44
37 34 64 71 82 111 33 73 67 240 69 337 l2 72 -45 44 c-86 83 -161 192 -175
255 -26 109 -77 202 -112 202 -24 0 -61 -46 -73 -91 -6 -24 -16 -54 -22 -66
-10 -21 -12 -21 -44 -5 -33 15 -34 18 -34 73 0 39 -5 63 -17 78 -21 25 -72 34
-123 21z"/>
</g>
</svg>
